#!OML:ASF X:\2005_08_12_Meinard\c3d\meinard.ASF
:FULLY-SPECIFIED
:DEGREES
2278
root 4.3939 16.3644 1.43693 448.5 -85.3434 -470.41
lowerback 40.4837 0.509631 -3.3349
upperback 9.156 -1.94208 1.70783
thorax -9.17922 -1.52088 4.46613
lowerneck -10.4832 -3.58731 1.51963
upperneck -2.35795 -5.21832 5.63308
head 1.14616 -2.59081 1.29309
rclavicle 1.39149e-015 9.14409e-015
rhumerus -33.5255 11.0008 -93.4942
rradius 98.4449
rwrist 24.2856
rhand -8.34329 -10.7606
rfingers 7.12502
rthumb 17.5785 -39.986
lclavicle 1.39149e-015 9.14409e-015
lhumerus -20.4493 -9.38379 90.7506
lradius 54.7427
lwrist -199.175
lhand -13.4999 8.90467
lfingers 7.12502
lthumb 12.6113 38.504
rfemur -175.487 -184.975 195.16
rtibia 41.4053
rfoot 163.389 165.19
rtoes 11.9212
lfemur -175.947 175.396 -190.952
ltibia 46.7197
lfoot -20.5288 23.1659
ltoes 18.535
2279
root 4.40564 16.3682 1.4182 445.257 -85.4832 -467.263
lowerback 40.2675 0.52022 -3.41941
upperback 9.20425 -1.95079 1.6879
thorax -9.05377 -1.52555 4.48535
lowerneck -10.4026 -3.51783 1.3676
upperneck -2.42548 -5.10205 5.67495
head 1.11437 -2.53364 1.33911
rclavicle -1.64991e-014 1.66979e-014
rhumerus -33.4452 11.0737 -93.7506
rradius 97.6712
rwrist 24.5482
rhand -8.44131 -10.6984
rfingers 7.12502
rthumb 17.4842 -39.9322
lclavicle -1.64991e-014 1.66979e-014
lhumerus -20.0299 -9.6439 90.601
lradius 54.117
lwrist -199.836
lhand -13.401 8.82964
lfingers 7.12502
lthumb 12.7066 38.4231
rfemur -175.111 -184.922 195.418
rtibia 41.5895
rfoot 162.912 165.681
rtoes 11.7695
lfemur -175.863 175.6 -191.028
ltibia 46.5595
lfoot -20.4636 23.0435
ltoes 18.3143
2280
root 4.418 16.3712 1.39901 441.846 -85.6073 -463.933
lowerback 40.0312 0.522054 -3.47589
upperback 9.25858 -1.95937 1.65404
thorax -8.91578 -1.53051 4.47429
lowerneck -10.304 -3.45125 1.21564
upperneck -2.53397 -4.9888 5.7405
head 1.06699 -2.47939 1.39305
rclavicle 2.70347e-014 -1.98785e-015
rhumerus -33.3249 11.1279 -93.995
rradius 96.858
rwrist 24.813
rhand -8.49764 -10.6612
rfingers 7.12502
rthumb 17.43 -39.8997
lclavicle 2.70347e-014 -1.98785e-015
lhumerus -19.604 -9.91725 90.4414
lradius 53.4807
lwrist -200.542
lhand -13.2877 8.77237
lfingers 7.12502
lthumb 12.8159 38.359
rfemur -174.758 -184.852 195.67
rtibia 41.7786
rfoot 162.419 166.213
rtoes 11.5134
lfemur -175.804 175.78 -191.095
ltibia 46.4102
lfoot -20.3721 22.9039
ltoes 18.2625
2281
root 4.4308 16.3735 1.37848 438.295 -85.7538 -460.445
lowerback 39.7872 0.532794 -3.53646
upperback 9.30355 -1.95838 1.59835
thorax -8.78648 -1.52924 4.43818
lowerneck -10.2449 -3.39686 1.1069
upperneck -2.60007 -4.89936 5.7834
head 1.03834 -2.43572 1.43046
rclavicle -2.84262e-014 8.74653e-015
rhumerus -33.2156 11.1566 -94.2224
rradius 96.0199
rwrist 25.1048
rhand -8.59327 -10.5963
rfingers 7.12502
rthumb 17.3379 -39.8429
lclavicle -2.84262e-014 8.74653e-015
lhumerus -19.1683 -10.2814 90.2616
lradius 52.8605
lwrist -201.216
lhand -13.2089 8.66183
lfingers 7.12502
lthumb 12.8918 38.2436
rfemur -174.431 -184.786 195.886
rtibia 41.9749
rfoot 161.914 166.767
rtoes 11.2189
lfemur -175.766 175.939 -191.196
ltibia 46.2613
lfoot -20.2692 22.7662
ltoes 18.287
2282
root 4.44328 16.3755 1.35638 434.337 -85.9048 -456.563
lowerback 39.5595 0.553327 -3.62507
upperback 9.34707 -1.9559 1.55156
thorax -8.6628 -1.52744 4.42621
lowerneck -10.1576 -3.35586 0.978095
upperneck -2.69073 -4.82308 5.81078
head 0.997236 -2.39968 1.46635
rclavicle -1.45113e-014 8.34896e-015
rhumerus -33.0902 11.1839 -94.39
rradius 95.2003
rwrist 25.4074
rhand -8.6076 -10.5297
rfingers 7.12502
rthumb 17.3241 -39.7776
lclavicle -1.45113e-014 8.34896e-015
lhumerus -18.7422 -10.5948 90.1012
lradius 52.2257
lwrist -201.954
lhand -13.1515 8.58781
lfingers 7.12502
lthumb 12.9472 38.1661
rfemur -174.091 -184.734 196.091
rtibia 42.1735
rfoot 161.41 167.304
rtoes 11.0142
lfemur -175.705 176.13 -191.33
ltibia 46.1049
lfoot -20.1989 22.6385
ltoes 18.1214
2283
root 4.4561 16.3778 1.33334 430.041 -86.0305 -452.32
lowerback 39.3139 0.561547 -3.69204
upperback 9.38636 -1.95898 1.49145
thorax -8.53805 -1.52736 4.39071
lowerneck -10.1305 -3.3108 0.887048
upperneck -2.72212 -4.75018 5.83593
head 0.984314 -2.36299 1.49365
rclavicle -8.54774e-015 1.31198e-014
rhumerus -32.933 11.2141 -94.5655
rradius 94.3858
rwrist 25.6987
rhand -8.59875 -10.4669
rfingers 7.12502
rthumb 17.3327 -39.7141
lclavicle -8.54774e-015 1.31198e-014
lhumerus -18.3286 -10.9318 89.9178
lradius 51.6095
lwrist -202.633
lhand -13.0807 8.48299
lfingers 7.12502
lthumb 13.0154 38.057
rfemur -173.776 -184.635 196.289
rtibia 42.3688
rfoot 160.914 167.864
rtoes 10.6992
lfemur -175.675 176.305 -191.447
ltibia 45.9408
lfoot -20.0901 22.4871
ltoes 18.0272
2284
root 4.46864 16.3809 1.30904 425.322 -86.1699 -447.637
lowerback 39.055 0.588023 -3.77791
upperback 9.42536 -1.9455 1.42453
thorax -8.4098 -1.51906 4.35106
lowerneck -10.1212 -3.28428 0.780547
upperneck -2.75856 -4.70108 5.87422
head 0.974231 -2.33785 1.52661
rclavicle -1.33186e-014 1.19271e-015
rhumerus -32.7595 11.2499 -94.6876
rradius 93.5614
rwrist 25.9305
rhand -8.59104 -10.4104
rfingers 7.12502
rthumb 17.3401 -39.6569
lclavicle -1.33186e-014 1.19271e-015
lhumerus -17.8889 -11.2806 89.728
lradius 50.9472
lwrist -203.281
lhand -13.0527 8.44285
lfingers 7.12502
lthumb 13.0424 38.0151
rfemur -173.481 -184.55 196.449
rtibia 42.5549
rfoot 160.4 168.381
rtoes 10.3401
lfemur -175.655 176.483 -191.611
ltibia 45.7664
lfoot -19.9653 22.3579
ltoes 18.0355
2285
root 4.48153 16.3836 1.28366 420.073 -86.2823 -442.431
lowerback 38.8031 0.606983 -3.86462
upperback 9.47229 -1.94333 1.35125
thorax -8.2736 -1.51703 4.30958
lowerneck -10.1292 -3.26136 0.672675
upperneck -2.78134 -4.65798 5.92134
head 0.971945 -2.31496 1.56211
rclavicle 2.5842e-015 1.31198e-014
rhumerus -32.5755 11.3044 -94.7928
rradius 92.7678
rwrist 26.1165
rhand -8.51046 -10.3512
rfingers 7.12502
rthumb 17.4176 -39.5908
lclavicle 2.5842e-015 1.31198e-014
lhumerus -17.4216 -11.6677 89.5047
lradius 50.3002
lwrist -203.854
lhand -13.0041 8.35452
lfingers 7.12502
lthumb 13.0892 37.9238
rfemur -173.179 -184.446 196.608
rtibia 42.7233
rfoot 159.941 168.854
rtoes 10.1123
lfemur -175.635 176.677 -191.779
ltibia 45.5894
lfoot -19.8411 22.2164
ltoes 17.9297
2286
root 4.49379 16.3865 1.25759 414.485 -86.369 -436.873
lowerback 38.5616 0.623507 -3.94085
upperback 9.49597 -1.93781 1.27308
thorax -8.16695 -1.51078 4.25724
lowerneck -10.1594 -3.25532 0.552871
upperneck -2.7616 -4.63743 5.95569
head 0.987625 -2.30152 1.59416
rclavicle -2.42517e-014 2.98177e-014
rhumerus -32.4154 11.358 -94.8726
rradius 91.9835
rwrist 26.2422
rhand -8.39163 -10.2931
rfingers 7.12502
rthumb 17.532 -39.5226
lclavicle -2.42517e-014 2.98177e-014
lhumerus -16.9766 -12 89.2688
lradius 49.6319
lwrist -204.405
lhand -13.0544 8.33849
lfingers 7.12502
lthumb 13.0407 37.9108
rfemur -172.885 -184.337 196.76
rtibia 42.8715
rfoot 159.501 169.248
rtoes 9.83639
lfemur -175.625 176.881 -191.961
ltibia 45.4103
lfoot -19.7036 22.097
ltoes 17.8889
2287
root 4.50625 16.3906 1.23014 408.594 -86.4217 -431.002
lowerback 38.3157 0.644907 -4.01001
upperback 9.53014 -1.92435 1.18962
thorax -8.04769 -1.50184 4.19224
lowerneck -10.2602 -3.25598 0.449407
upperneck -2.70905 -4.63137 5.99345
head 1.02601 -2.29365 1.62281
rclavicle 1.86858e-014 -1.39149e-014
rhumerus -32.216 11.4328 -94.9289
rradius 91.2114
rwrist 26.3298
rhand -8.26532 -10.2697
rfingers 7.12502
rthumb 17.6535 -39.4883
lclavicle 1.86858e-014 -1.39149e-014
lhumerus -16.5055 -12.3859 89.0167
lradius 48.9542
lwrist -204.853
lhand -12.999 8.27975
lfingers 7.12502
lthumb 13.0942 37.8487
rfemur -172.603 -184.214 196.901
rtibia 42.9915
rfoot 159.085 169.587
rtoes 9.66479
lfemur -175.632 177.051 -192.13
ltibia 45.2339
lfoot -19.5501 21.9334
ltoes 17.8553
2288
root 4.51852 16.393 1.20123 402.323 -86.4419 -424.755
lowerback 38.0877 0.667905 -4.10886
upperback 9.55594 -1.91941 1.11341
thorax -7.94148 -1.49644 4.15462
lowerneck -10.3797 -3.26474 0.321347
upperneck -2.63427 -4.63416 6.03109
head 1.07588 -2.28898 1.65506
rclavicle 2.5842e-015 -1.51076e-014
rhumerus -32.0298 11.5192 -94.9632
rradius 90.4294
rwrist 26.3963
rhand -8.10621 -10.1815
rfingers 7.12502
rthumb 17.8066 -39.3863
lclavicle 2.5842e-015 -1.51076e-014
lhumerus -16.0685 -12.7423 88.751
lradius 48.3199
lwrist -205.256
lhand -13.0033 8.2148
lfingers 7.12502
lthumb 13.09 37.784
rfemur -172.302 -184.173 197.042
rtibia 43.0829
rfoot 158.657 169.886
rtoes 9.27526
lfemur -175.637 177.272 -192.329
ltibia 45.0645
lfoot -19.3863 21.7984
ltoes 17.8877
